<svg width="15" height="15" viewBox="0 0 15 15" fill="none" xmlns="http://www.w3.org/2000/svg">
<path d="M7.59258 10.291C7.59258 8.65717 8.92172 7.32803 10.5556 7.32803C10.8852 7.32803 11.202 7.38293 11.4984 7.48273L11.745 4.52379H2.38197L3.11521 13.3223C3.19359 14.263 3.9945 15 4.93859 15H9.18844C10.1325 15 10.9334 14.263 11.0118 13.3223L11.0206 13.2172C10.869 13.2412 10.7137 13.254 10.5556 13.254C8.92177 13.254 7.59258 11.9248 7.59258 10.291Z" fill="#FA1F1F"/>
<path d="M10.5556 8.01586C9.30107 8.01586 8.28041 9.03651 8.28041 10.291C8.28041 11.5455 9.30107 12.5662 10.5556 12.5662C11.8101 12.5662 12.8307 11.5455 12.8307 10.291C12.8307 9.03651 11.8101 8.01586 10.5556 8.01586ZM11.6718 10.9208C11.8061 11.0552 11.8061 11.2729 11.6718 11.4072C11.6046 11.4743 11.5166 11.5079 11.4285 11.5079C11.3406 11.5079 11.2525 11.4743 11.1853 11.4072L10.5556 10.7774L9.92576 11.4072C9.85859 11.4743 9.77056 11.5079 9.68253 11.5079C9.59455 11.5079 9.50647 11.4743 9.4393 11.4072C9.30501 11.2729 9.30501 11.0552 9.4393 10.9208L10.0691 10.291L9.4393 9.66121C9.30501 9.52687 9.30501 9.30914 9.4393 9.1748C9.57364 9.04055 9.79137 9.04055 9.92571 9.1748L10.5555 9.80459L11.1853 9.1748C11.3197 9.04055 11.5374 9.04055 11.6718 9.1748C11.8061 9.30914 11.8061 9.52687 11.6718 9.66121L11.042 10.291L11.6718 10.9208Z" fill="#FA1F1F"/>
<path d="M5.66136 1.31828C5.66136 0.970657 5.94419 0.687828 6.29182 0.687828H7.83505C8.18273 0.687828 8.46556 0.970657 8.46556 1.31828V1.74793H9.15339V1.31828C9.15344 0.591414 8.56202 0 7.8351 0H6.29187C5.565 0 4.97359 0.591414 4.97359 1.31828V1.74793H5.66136V1.31828Z" fill="#FA1F1F"/>
<path d="M11.9577 3.21429C11.9577 2.785 11.6084 2.43576 11.1791 2.43576H2.94783C2.51854 2.43576 2.1693 2.785 2.1693 3.21429V3.83601H11.9577V3.21429Z" fill="#FA1F1F"/>
</svg>
