<svg width="15" height="15" viewBox="0 0 15 15" fill="none" xmlns="http://www.w3.org/2000/svg">
<g clip-path="url(#clip0_1_71)">
<path d="M3.40909 8.18182V10.9091C3.40909 11.2856 3.71436 11.5909 4.09091 11.5909H6.81818C6.999 11.5909 7.17241 11.519 7.30027 11.3912L14.8002 3.89118C15.0665 3.62491 15.0665 3.19323 14.8002 2.92695L12.073 0.199682C11.9452 0.0718636 11.7717 0 11.5909 0C11.4101 0 11.2366 0.0718636 11.1088 0.199727L3.60882 7.69973C3.48091 7.82755 3.40909 8.001 3.40909 8.18182ZM4.77272 8.46423L11.5909 1.64605L13.354 3.40909L6.53577 10.2273H4.77272V8.46423Z" fill="#38BFBF"/>
<path d="M14.3182 6.81823C13.9416 6.81823 13.6364 7.1235 13.6364 7.50005V13.6364H1.36364V1.36364H7.5C7.87655 1.36364 8.18182 1.05836 8.18182 0.681818C8.18182 0.305273 7.87655 0 7.5 0H0.681818C0.305273 0 0 0.305273 0 0.681818V14.3182C0 14.6947 0.305273 15 0.681818 15H14.3182C14.6947 15 15 14.6947 15 14.3182V7.50005C15 7.12346 14.6947 6.81823 14.3182 6.81823Z" fill="#38BFBF"/>
</g>
<defs>
<clipPath id="clip0_1_71">
<rect width="15" height="15" fill="white"/>
</clipPath>
</defs>
</svg>
