<svg width="46" height="46" viewBox="0 0 46 46" fill="none" xmlns="http://www.w3.org/2000/svg">
<path d="M41.264 18.557H26.829V4.134C26.829 1.851 24.987 0 22.704 0C20.421 0 18.58 1.851 18.58 4.135V18.567H4.138C1.855 18.567 -0.000998376 20.418 1.6236e-06 22.702C-0.000998376 23.843 0.460002 24.889 1.207 25.636C1.955 26.385 2.987 26.858 4.127 26.858H18.58V41.27C18.58 42.412 19.033 43.446 19.781 44.192C20.529 44.94 21.558 45.403 22.7 45.403C24.982 45.403 26.829 43.552 26.829 41.27V26.857H41.264C43.547 26.857 45.398 24.99 45.397 22.707C45.396 20.425 43.545 18.557 41.264 18.557Z" fill="#6EDF6C"/>
</svg>
